# xmcd
#
# Track frame offsets:
#	150
#	13705
#	26755
#	40208
#	52019
#	63876
#	75782
#	87411
#	98246
#	103939
#	117052
#	127748
#	139995
#	150331
#	157307
#	174541
#	188456
#	203696
#	222726
#	236555
#	252916
#	268117
#
# Disc length: 3695 seconds
#
# Revision: 0
# Processed by: cddbd v1.5.2PL0 Copyright (c) Steve Scherf et al.
# Submitted via: EasyCDDAExtractor 16.0.6.1
#
DISCID=2b0e6d16
DTITLE=Various Artist - Country Sunset [Disc 06]
DYEAR=1900
DGENRE=Country
TTITLE0=Dave Dudley - The Pool Shark
TTITLE1=Faron Young - It's Four in the Morning
TTITLE2=Hank Snow - It Don't Hurt Anymore
TTITLE3=Bobby Lewis - How Long Has it Been
TTITLE4=Conway Twitty - Linda on My Mind
TTITLE5=Holly Dunn - That's What Your Love Does to Me
TTITLE6=Lynn Anderson - You're My Man
TTITLE7=The Everly Brothers - (Till) I Kissed You
TTITLE8=Tammy Wynette - Singing My Song
TTITLE9=Kenny Rogers - Ruby, Don't Take Your Love to Town
TTITLE10=Dottie West - A Lesson in Leaving
TTITLE11=Bill Anderson - The Tips of My Fingers
TTITLE12=Jan Howard - Evil on Your Mind
TTITLE13=Mel Tillis - Good Woman Blues
TTITLE14=Bobby Goldsboro - Honey
TTITLE15=Billy Joe Royal - Tell it Like it is
TTITLE16=The Country Dance Kings - Friends in Low Places
TTITLE17=The Nitty Gritty Dirt Band - Mr Bojangles
TTITLE18=Joel Sonnier - I Can Help
TTITLE19=T. Graham and George Jones - Bag of Bones
TTITLE20=Eddy Raven - Shine, Shine, Shine
TTITLE21=Webb Pierce - I Ain't Never
EXTD=
EXTT0=
EXTT1=
EXTT2=
EXTT3=
EXTT4=
EXTT5=
EXTT6=
EXTT7=
EXTT8=
EXTT9=
EXTT10=
EXTT11=
EXTT12=
EXTT13=
EXTT14=
EXTT15=
EXTT16=
EXTT17=
EXTT18=
EXTT19=
EXTT20=
EXTT21=
PLAYORDER=
